<svg id="レイヤー_1" data-name="レイヤー 1" xmlns="http://www.w3.org/2000/svg" xmlns:xlink="http://www.w3.org/1999/xlink" viewBox="0 0 376 319.13"><defs><style>.cls-1{fill:url(#名称未設定グラデーション_9);}.cls-2{fill:#ccc;}.cls-3{fill:url(#名称未設定グラデーション_9-2);}.cls-4{fill:url(#名称未設定グラデーション_9-3);}.cls-5{fill:url(#名称未設定グラデーション_12);}.cls-6{font-size:150px;fill:#666;font-family:HannotateTC-W7-B5pc-H, Hannotate TC;}</style><linearGradient id="名称未設定グラデーション_9" x1="359.99" y1="253" x2="360" y2="253.01" gradientUnits="userSpaceOnUse"><stop offset="0" stop-color="#ffe22a"/><stop offset="0.08" stop-color="#ffe433"/><stop offset="0.22" stop-color="#ffeb4c"/><stop offset="0.4" stop-color="#fff673"/><stop offset="0.52" stop-color="#ffff94"/><stop offset="0.83" stop-color="#f0e42f"/><stop offset="0.99" stop-color="#e9d700"/></linearGradient><linearGradient id="名称未設定グラデーション_9-2" x1="359.75" y1="253.45" x2="360.15" y2="253.71" xlink:href="#名称未設定グラデーション_9"/><linearGradient id="名称未設定グラデーション_9-3" x1="18.19" y1="252.8" x2="18.94" y2="253.29" xlink:href="#名称未設定グラデーション_9"/><linearGradient id="名称未設定グラデーション_12" x1="402.84" y1="214.55" x2="716.42" y2="417.76" gradientUnits="userSpaceOnUse"><stop offset="0" stop-color="#999"/><stop offset="0.06" stop-color="#a3a3a3"/><stop offset="0.37" stop-color="#d3d3d3"/><stop offset="0.52" stop-color="#e6e6e6"/><stop offset="0.59" stop-color="#e0e0e0"/><stop offset="0.68" stop-color="#cdcdcd"/><stop offset="0.79" stop-color="#b0b0b0"/><stop offset="0.91" stop-color="#878787"/><stop offset="0.99" stop-color="#666"/></linearGradient></defs><polygon class="cls-1" points="360 253 360 253 360 253.01 360 253"/><polygon class="cls-2" points="360 253 360 253 360 253.01 360 253 360 253"/><polygon class="cls-3" points="360 254 360 253.01 359.69 254 360 254"/><polygon class="cls-2" points="360 253.01 359.69 254 360 254 360 253.01 360 253.01"/><polygon class="cls-4" points="19 253.32 19 253 18 253 19 253.32"/><polygon class="cls-2" points="19 253 18 253 19 253.32 19 253 19 253"/><path class="cls-5" d="M395.37,437.63v-195H395l-.23,0h-.26a18.17,18.17,0,1,1,8.29-2l-.45.23,81.57,81.56,77.44-101-.57-.12A18.17,18.17,0,1,1,569,221l-.54.14,77.85,101.57L729,240.07l-.6-.18a18.1,18.1,0,1,1,6.89.65l-.34,0,.66,197.06Z" transform="translate(-376 -185)"/><path class="cls-2" d="M564.5,185.74A17.75,17.75,0,0,1,569,220.68l-1.08.27.68.89L645.8,322.63l.51.67.6-.6,81.93-81.93.88-.88-1.2-.35a17.75,17.75,0,1,1,6.75.63l-.67.07v.67l.64,196.35H395.74v-195l-.76,0h-.48a17.8,17.8,0,1,1,8.12-2l-.9.46.72.72,80.91,80.91.59.59.52-.67,76.83-100.23.72-.94-1.16-.24a17.76,17.76,0,0,1,3.65-35.14m0-.74a18.5,18.5,0,0,0-3.8,36.61L483.87,321.84,403,240.94A18.48,18.48,0,1,0,394.5,243c.17,0,.33,0,.5,0V438H736l-.65-197.09a18.53,18.53,0,1,0-7-.66l-81.92,81.93L569.13,221.39A18.49,18.49,0,0,0,564.5,185Z" transform="translate(-376 -185)"/><text class="cls-6" transform="translate(128.75 217.37) rotate(5)">2</text></svg>