<svg id="レイヤー_1" data-name="レイヤー 1" xmlns="http://www.w3.org/2000/svg" xmlns:xlink="http://www.w3.org/1999/xlink" viewBox="0 0 514.46 363.5"><defs><style>.cls-1{fill:none;}.cls-2,.cls-4{fill:#fff;}.cls-3{clip-path:url(#clip-path);}.cls-4{font-size:200px;font-family:HannotateTC-W5-B5pc-H, Hannotate TC;}</style><clipPath id="clip-path" transform="translate(-152.94 -36.4)"><rect class="cls-1" x="81" y="115" width="548.76" height="248" rx="46.03"/></clipPath></defs><path d="M659.7,313.2c-.1,0-.2.1-.3.1a11.22,11.22,0,0,1-1.3-.5C659.1,312.7,659.1,312.7,659.7,313.2Z" transform="translate(-152.94 -36.4)"/><path class="cls-2" d="M353.3,101.7H353v-.1h.3Z" transform="translate(-152.94 -36.4)"/><path class="cls-2" d="M369.6,91l.1.1-.3.2-.1-.1Z" transform="translate(-152.94 -36.4)"/><path class="cls-2" d="M353,300.3l.3-.1a.1.1,0,0,0,.1.1c-.1,0-.2.1-.3.1A.1.1,0,0,1,353,300.3Z" transform="translate(-152.94 -36.4)"/><path class="cls-2" d="M369.6,289.7l.1.1-.3.2-.1-.1Z" transform="translate(-152.94 -36.4)"/><polygon class="cls-2" points="149.76 198.8 149.56 198.7 149.66 198.7 149.76 198.8"/><path class="cls-2" d="M270.1,190.6a.1.1,0,0,1,.1-.1h.2v.1Z" transform="translate(-152.94 -36.4)"/><path class="cls-2" d="M356.56,202.74h.22V203h-.22Z" transform="translate(-152.94 -36.4)"/><path class="cls-2" d="M254,201.1c-.1,0-.1.1-.2.1a.1.1,0,0,1-.1-.1Z" transform="translate(-152.94 -36.4)"/><path class="cls-2" d="M338.27,214.59v.11H338v-.22Z" transform="translate(-152.94 -36.4)"/><polygon class="cls-2" points="248.96 198.8 248.86 198.7 248.96 198.7 248.96 198.8"/><path class="cls-2" d="M270.4,289.7v.1l-.2-.1Z" transform="translate(-152.94 -36.4)"/><path class="cls-2" d="M253.9,300.3a.1.1,0,0,1,.1-.1c.1,0,.1,0,.1.1v.1Z" transform="translate(-152.94 -36.4)"/><path class="cls-2" d="M452.5,300.3l-.1-.1.1-.1.1.1Z" transform="translate(-152.94 -36.4)"/><path class="cls-2" d="M469,91.1v.1h-.1v-.1Z" transform="translate(-152.94 -36.4)"/><path class="cls-2" d="M452.5,101.7l-.1-.1a.35.35,0,0,1,.2-.1l.1.1Z" transform="translate(-152.94 -36.4)"/><polygon class="cls-2" points="248.96 0.1 248.86 0 248.96 0 248.96 0.1"/><path class="cls-2" d="M270.4,389.3c-.1,0-.1.1-.2.1a.1.1,0,0,1-.1-.1Z" transform="translate(-152.94 -36.4)"/><path class="cls-2" d="M369.6,389.2l-.1.1-.1-.2c0,.1.1.1.2.1Z" transform="translate(-152.94 -36.4)"/><path class="cls-2" d="M568,389.1l.2.1-.2.1-.1-.1A.1.1,0,0,0,568,389.1Z" transform="translate(-152.94 -36.4)"/><path class="cls-2" d="M667.1,389.3a.1.1,0,0,1,.1-.1h.2v.1Z" transform="translate(-152.94 -36.4)"/><path class="cls-2" d="M253.7,399.8v-.1h.2v.1Z" transform="translate(-152.94 -36.4)"/><path class="cls-2" d="M551.6,399.7h.2v.2h-.2Z" transform="translate(-152.94 -36.4)"/><path class="cls-2" d="M651,399.6v.2l-.2-.1Z" transform="translate(-152.94 -36.4)"/><text class="cls-4" transform="translate(0 256.91)">特集</text></svg>